<!DOCTYPE svg PUBLIC "-//W3C//DTD SVG 1.1//EN" "http://www.w3.org/Graphics/SVG/1.1/DTD/svg11.dtd">
<svg width="64px" height="64px" viewBox="0 0 24 24" fill="none" xmlns="http://www.w3.org/2000/svg">

<g id="hello" stroke-width="0"/>

<g id="hello" stroke-linecap="round" stroke-linejoin="round"/>

<g id="SVGRepo_iconCarrier"> <path d="M10 13C9.44772 13 9 13.4477 9 14C9 14.5523 9.44772 15 10 15H14C14.5523 15 15 14.5523 15 14C15 13.4477 14.5523 13 14 13H10Z" fill="#0F0F0F"/> <path d="M17 14C17 13.4477 17.4477 13 18 13C18.5523 13 19 13.4477 19 14C19 14.5523 18.5523 15 18 15C17.4477 15 17 14.5523 17 14Z" fill="#0F0F0F"/> <path d="M6 13C5.44772 13 5 13.4477 5 14C5 14.5523 5.44772 15 6 15C6.55229 15 7 14.5523 7 14C7 13.4477 6.55229 13 6 13Z" fill="#0F0F0F"/> <path d="M5 10C5 9.44772 5.44772 9 6 9C6.55229 9 7 9.44772 7 10C7 10.5523 6.55229 11 6 11C5.44772 11 5 10.5523 5 10Z" fill="#0F0F0F"/> <path d="M10 9C9.44771 9 9 9.44772 9 10C9 10.5523 9.44771 11 10 11C10.5523 11 11 10.5523 11 10C11 9.44772 10.5523 9 10 9Z" fill="#0F0F0F"/> <path d="M13 10C13 9.44772 13.4477 9 14 9C14.5523 9 15 9.44772 15 10C15 10.5523 14.5523 11 14 11C13.4477 11 13 10.5523 13 10Z" fill="#0F0F0F"/> <path d="M18 9C17.4477 9 17 9.44772 17 10C17 10.5523 17.4477 11 18 11C18.5523 11 19 10.5523 19 10C19 9.44772 18.5523 9 18 9Z" fill="#0F0F0F"/> <path fill-rule="evenodd" clip-rule="evenodd" d="M20 5C21.6569 5 23 6.34315 23 8V16C23 17.6569 21.6569 19 20 19H4C2.34315 19 1 17.6569 1 16V8C1 6.34315 2.34315 5 4 5H20ZM20 7C20.5523 7 21 7.44772 21 8V16C21 16.5523 20.5523 17 20 17H4C3.44772 17 3 16.5523 3 16V8C3 7.44772 3.44772 7 4 7H20Z" fill="#0F0F0F"/> </g>

</svg>